<?xml version="1.0" encoding="UTF-8" ?>
<!DOCTYPE svg PUBLIC "-//W3C//DTD SVG 1.1//EN" "http://www.w3.org/Graphics/SVG/1.1/DTD/svg11.dtd">
<svg width="2048pt" height="776pt" viewBox="0 0 2048 776" version="1.1" xmlns="http://www.w3.org/2000/svg">
<g id="#000000ff">
<path fill="#000000" opacity="1.00" d=" M 95.75 94.01 C 95.33 90.15 100.91 87.83 103.05 91.23 C 104.45 95.70 103.86 100.51 104.68 105.09 C 105.90 112.76 107.05 120.43 108.26 128.10 C 110.09 126.99 111.79 125.44 113.97 125.10 C 115.94 125.18 117.36 126.75 118.91 127.76 C 121.32 127.62 123.75 127.19 126.16 127.51 C 129.67 128.14 132.16 131.52 132.46 134.96 C 133.23 143.25 132.97 151.65 134.55 159.86 C 135.34 163.70 134.94 167.66 135.68 171.49 C 138.66 180.55 144.78 188.11 148.48 196.84 C 155.93 212.72 160.41 229.86 162.92 247.17 C 167.20 246.50 171.56 246.66 175.76 247.72 C 176.00 244.83 176.15 241.94 176.15 239.04 C 174.50 236.75 172.88 233.87 174.27 231.02 C 176.80 226.36 175.80 220.88 175.06 215.88 C 174.13 210.01 169.40 205.92 166.91 200.76 C 165.04 197.22 166.94 193.36 167.93 189.88 C 169.20 189.64 170.47 189.40 171.74 189.17 C 171.15 185.75 169.03 182.97 166.81 180.42 C 163.14 176.28 161.10 171.01 157.58 166.76 C 155.65 164.47 153.73 162.17 152.23 159.57 C 153.47 158.86 154.74 158.22 156.05 157.66 C 158.20 158.31 160.02 159.69 161.91 160.85 C 161.17 159.25 160.27 157.69 159.82 155.97 C 158.91 153.52 162.84 151.49 164.38 153.58 C 167.59 156.48 169.56 160.43 172.48 163.60 C 175.34 166.70 177.80 170.13 180.28 173.54 C 183.15 177.73 188.74 179.26 190.80 184.13 C 192.61 188.42 197.56 190.14 201.90 189.66 C 205.16 187.71 206.99 183.54 210.98 182.79 C 214.34 182.20 217.56 184.64 218.05 187.99 C 215.76 189.07 213.13 190.07 211.93 192.49 C 209.30 197.65 207.87 203.31 206.17 208.82 C 204.82 213.06 200.98 215.90 199.50 220.07 C 198.61 222.28 198.37 224.66 198.12 227.01 C 203.15 227.74 209.05 228.43 212.35 232.80 C 214.73 235.66 215.14 239.48 215.27 243.06 C 215.34 247.05 216.72 250.98 216.19 255.00 C 215.22 258.45 212.79 261.36 212.24 264.97 C 211.72 268.21 210.28 271.54 210.64 274.76 C 220.27 283.64 233.78 285.87 245.21 291.58 C 248.14 292.94 250.19 295.53 252.37 297.82 C 255.27 286.64 259.31 275.65 260.27 264.07 C 260.46 261.15 262.08 258.13 261.04 255.27 C 259.21 252.43 256.23 250.60 253.49 248.74 C 250.75 246.83 247.29 246.95 244.22 246.01 C 242.17 244.88 244.86 243.50 245.58 242.59 C 248.55 240.03 252.59 240.94 256.04 241.71 C 255.60 237.42 254.12 233.34 252.18 229.51 C 249.09 223.71 247.81 217.21 246.14 210.91 C 245.21 208.78 246.80 205.97 249.32 206.69 C 252.67 211.34 254.03 217.08 257.08 221.92 C 257.84 213.92 258.83 204.68 265.08 198.91 C 265.91 200.31 267.54 201.72 266.77 203.52 C 265.15 210.06 262.92 217.42 266.93 223.61 C 268.29 221.24 269.35 218.60 271.27 216.60 C 274.90 214.07 279.51 212.93 283.90 213.68 C 282.14 218.13 276.42 218.77 274.45 223.15 C 278.59 221.45 282.13 218.14 286.61 217.25 C 287.56 222.70 280.18 224.23 279.16 229.11 C 278.62 232.42 279.85 235.65 280.39 238.88 C 281.49 244.00 280.54 249.25 279.56 254.31 C 282.20 255.44 286.09 256.55 286.38 259.94 C 285.78 265.42 281.44 270.23 282.60 275.96 C 284.78 287.11 280.98 298.19 279.92 309.25 C 278.93 322.80 279.97 336.44 278.33 349.95 C 277.57 357.34 279.14 364.76 278.15 372.14 C 283.40 372.63 287.53 376.55 292.67 377.64 C 292.51 373.41 292.47 369.17 292.04 364.95 C 292.04 361.81 288.46 360.26 288.32 357.16 C 288.14 354.84 288.54 352.55 288.75 350.26 C 287.44 349.63 285.68 349.62 284.71 348.42 C 284.10 344.70 284.23 340.77 285.19 337.11 C 287.97 330.59 286.82 323.17 289.47 316.60 C 291.32 311.82 295.24 308.13 299.63 305.64 C 307.11 301.42 315.42 298.54 324.01 297.82 C 331.47 297.16 338.55 300.61 344.40 304.94 C 348.04 307.84 351.61 311.27 353.13 315.80 C 354.49 319.35 354.39 323.21 354.42 326.95 C 354.38 332.27 353.83 337.76 351.41 342.58 C 349.91 345.51 349.36 348.76 348.47 351.90 C 347.51 354.50 345.57 356.58 343.86 358.73 C 342.85 359.00 340.82 359.53 339.80 359.80 C 344.79 360.82 348.88 357.39 353.06 355.36 C 356.53 354.55 360.35 357.86 363.67 355.62 C 364.42 352.90 363.23 350.09 362.79 347.40 C 359.61 335.08 358.47 322.37 356.01 309.91 C 353.83 301.86 351.11 293.96 349.08 285.88 C 348.14 281.95 348.93 277.89 348.30 273.94 C 347.23 269.66 344.15 266.25 342.65 262.16 C 341.86 258.45 345.79 256.51 348.50 255.13 C 347.53 252.11 346.42 249.13 345.86 246.01 C 344.89 240.67 345.96 235.27 345.92 229.90 C 342.95 225.78 336.97 224.47 335.66 219.15 C 340.61 219.42 344.96 222.02 349.47 223.77 C 346.92 220.18 342.72 218.90 339.01 216.98 C 339.18 216.40 339.53 215.23 339.70 214.65 C 343.68 214.44 347.97 214.38 351.49 216.54 C 353.41 218.04 354.67 220.18 356.08 222.13 C 356.41 222.16 357.07 222.22 357.40 222.26 C 357.75 218.48 358.32 214.54 357.01 210.88 C 355.93 207.20 353.82 203.77 353.66 199.86 C 355.31 197.81 357.56 199.33 358.65 201.06 C 362.15 206.34 364.77 212.27 365.95 218.52 C 369.03 214.09 369.33 208.45 371.41 203.56 C 372.55 203.57 373.69 203.58 374.84 203.59 C 375.91 209.09 374.65 214.65 373.87 220.10 C 372.43 226.39 369.75 232.46 370.01 239.05 C 374.00 237.36 378.56 236.96 382.31 239.47 C 382.35 240.36 382.39 241.25 382.44 242.15 C 375.72 242.94 369.27 247.73 366.89 254.02 C 369.07 264.39 372.58 274.52 377.17 284.10 C 380.28 292.62 384.93 300.44 388.30 308.84 C 391.58 316.82 391.07 325.63 392.54 333.99 C 399.92 321.76 407.67 309.70 413.91 296.82 C 415.59 293.29 417.98 289.97 418.70 286.07 C 418.42 279.64 415.61 273.61 414.91 267.24 C 415.56 263.36 417.44 259.80 418.19 255.94 C 419.87 246.41 424.54 237.80 428.89 229.28 C 430.27 229.84 431.63 230.47 432.93 231.24 C 434.97 231.06 438.05 229.60 437.77 232.98 C 436.76 238.67 433.82 243.89 433.38 249.74 C 435.57 246.48 436.59 242.61 438.79 239.37 C 440.01 237.29 441.53 239.82 442.69 240.57 C 441.10 246.09 438.88 251.39 437.29 256.91 C 436.22 260.83 434.10 264.58 434.44 268.77 C 438.31 263.37 440.73 256.95 445.23 252.01 C 447.54 249.95 448.29 253.18 447.57 254.91 C 445.42 261.19 441.21 266.62 439.60 273.12 C 438.75 276.88 441.66 280.90 439.37 284.43 C 436.38 289.99 433.73 295.74 430.41 301.13 C 423.64 311.90 420.15 324.43 418.55 336.97 C 415.72 354.22 411.05 371.10 405.93 387.79 C 404.78 391.26 405.28 395.07 407.89 397.73 C 412.49 393.64 416.53 387.74 423.48 387.99 C 421.88 390.13 419.87 391.91 418.15 393.94 C 416.26 396.68 416.65 400.55 414.16 402.95 C 411.17 405.96 408.03 408.85 405.50 412.29 C 406.95 420.44 412.02 427.13 416.56 433.81 C 425.05 429.41 433.62 425.17 442.12 420.79 C 442.89 419.24 443.68 417.70 444.47 416.16 C 442.47 411.70 441.06 407.00 440.52 402.14 C 438.77 401.58 435.83 401.95 435.48 399.52 C 432.83 388.78 436.51 377.52 433.17 366.86 C 431.97 365.67 430.69 367.69 429.49 367.98 C 429.59 365.53 429.67 363.08 429.73 360.63 C 427.42 361.77 425.18 363.00 422.90 364.18 C 423.62 360.65 425.41 357.52 427.43 354.58 C 426.72 354.41 425.31 354.07 424.60 353.90 C 425.45 352.92 426.32 351.95 427.20 350.98 C 426.36 349.97 425.08 349.42 423.86 349.07 C 425.02 347.07 426.30 345.12 427.19 342.98 C 425.81 342.28 424.32 341.89 422.72 341.79 C 426.07 337.86 431.00 336.11 435.10 333.18 C 440.29 330.59 446.17 329.49 451.94 329.19 C 459.19 328.98 465.31 333.30 471.54 336.36 C 476.70 339.22 482.70 340.75 487.08 344.88 C 490.33 348.44 491.75 353.39 495.67 356.41 C 498.71 358.79 500.42 362.69 499.11 366.51 C 498.89 369.11 496.26 369.88 494.38 371.03 C 492.38 379.90 493.97 389.06 492.29 397.95 C 492.01 400.39 490.00 401.96 488.31 403.50 C 487.59 403.40 486.16 403.20 485.45 403.11 C 484.24 409.73 481.33 415.93 480.60 422.66 C 489.02 425.78 498.13 427.05 505.91 431.77 C 508.77 426.32 509.68 419.98 513.34 414.92 C 514.48 413.02 516.18 411.35 516.66 409.12 C 516.84 406.53 516.22 403.97 515.40 401.54 C 508.55 383.53 503.69 364.85 499.35 346.10 C 496.98 336.05 496.48 325.59 493.15 315.77 C 490.50 307.49 486.94 299.41 481.76 292.39 C 479.39 289.23 476.37 286.21 475.76 282.14 C 474.42 276.15 475.09 270.03 475.16 263.98 C 474.61 254.92 468.20 247.87 463.00 240.98 C 461.79 239.17 459.45 237.41 459.97 235.04 C 460.27 232.96 462.42 233.31 463.96 233.40 C 462.46 230.72 460.68 228.06 460.22 224.97 C 459.92 222.79 461.52 220.26 463.93 220.64 C 465.60 220.27 466.57 222.02 467.48 223.12 C 470.81 228.98 475.22 234.12 479.13 239.59 C 479.12 235.35 477.01 229.07 481.98 226.77 C 485.11 227.79 484.69 231.54 485.47 234.11 C 486.38 239.57 490.12 244.38 489.58 250.10 C 489.37 253.13 489.36 256.19 490.07 259.17 C 491.45 265.08 492.14 271.29 495.23 276.64 C 499.31 286.08 504.15 295.17 509.07 304.20 C 514.94 314.28 521.61 323.91 526.70 334.43 C 530.86 342.32 533.96 350.69 537.67 358.78 C 536.86 349.46 534.82 340.30 534.31 330.95 C 533.35 324.77 534.33 318.40 532.82 312.31 C 530.83 306.31 527.86 300.70 525.47 294.88 C 526.02 290.10 527.78 285.17 526.17 280.40 C 524.84 276.61 523.08 272.85 523.28 268.73 C 523.85 268.71 525.00 268.68 525.57 268.66 C 527.05 271.47 528.36 274.35 529.64 277.26 C 530.19 277.29 531.29 277.36 531.84 277.39 C 531.82 271.35 529.17 265.63 529.69 259.58 C 530.28 259.43 531.46 259.14 532.05 258.99 C 533.53 261.96 534.48 265.14 535.92 268.14 C 535.51 263.25 534.33 258.44 534.29 253.51 C 536.83 253.46 539.36 253.30 541.90 253.41 C 546.25 261.48 547.22 270.88 548.30 279.87 C 550.31 285.71 545.71 290.63 544.32 296.01 C 543.12 299.45 545.02 302.81 545.97 306.06 C 547.18 310.28 549.25 314.17 550.93 318.22 C 559.09 337.74 562.81 358.95 562.27 380.08 C 572.90 380.49 584.16 383.03 592.10 390.57 C 591.41 378.02 590.34 365.42 587.47 353.15 C 586.41 348.72 586.04 343.99 583.86 339.92 C 580.22 335.76 576.42 331.70 572.09 328.24 C 568.58 324.36 572.76 319.31 573.04 314.96 C 576.98 312.40 576.69 306.42 581.68 305.06 C 581.50 301.96 581.81 296.99 586.06 297.08 C 590.08 298.35 592.61 301.97 594.85 305.31 C 598.61 311.00 602.99 316.45 605.20 322.99 C 607.15 328.21 604.84 333.66 605.22 339.02 C 606.54 359.31 615.07 378.05 620.80 397.31 C 624.40 410.68 625.42 424.62 629.38 437.90 C 630.13 428.35 629.59 418.39 633.41 409.39 C 637.46 396.72 639.14 383.30 638.83 370.02 C 638.70 367.80 638.74 365.45 637.79 363.41 C 635.44 361.32 632.42 360.02 630.34 357.59 C 626.90 353.55 623.63 349.22 621.71 344.22 C 619.32 337.76 613.75 333.17 611.00 326.92 C 609.90 324.28 612.28 322.22 613.68 320.30 C 621.53 320.85 624.94 329.00 628.52 334.84 C 631.56 330.56 634.31 324.69 640.04 323.73 C 643.39 324.28 646.45 326.25 649.99 325.79 C 653.40 325.24 654.80 328.86 656.56 331.03 C 659.24 331.76 661.53 333.35 663.45 335.34 C 665.51 336.39 668.38 337.22 668.47 340.03 C 669.32 346.94 668.33 354.30 664.30 360.12 C 666.50 366.00 663.74 371.93 664.17 377.95 C 664.26 388.25 663.84 398.57 664.67 408.86 C 666.47 407.09 668.66 405.27 668.95 402.60 C 669.40 399.01 669.00 395.30 670.15 391.82 C 672.19 385.53 675.09 379.57 677.68 373.50 C 684.51 358.20 690.21 342.32 693.32 325.82 C 694.59 318.07 699.17 311.49 701.50 304.09 C 702.99 299.30 705.41 294.34 704.09 289.21 C 702.39 281.04 696.81 274.55 691.66 268.29 C 688.81 264.93 688.83 260.20 686.38 256.62 C 683.94 253.18 683.61 248.53 680.32 245.67 C 679.13 244.23 676.88 242.88 677.56 240.70 C 680.88 238.85 685.18 239.74 688.23 241.77 C 692.06 244.58 693.66 249.33 696.39 253.06 C 697.63 247.74 696.92 242.27 697.48 236.90 C 698.72 233.14 704.82 234.27 705.80 237.75 C 707.38 243.47 705.93 250.47 711.09 254.71 C 713.00 251.39 713.38 247.45 715.20 244.12 C 717.65 241.87 720.90 243.71 723.37 244.92 C 723.25 249.43 722.31 253.85 721.99 258.34 C 721.95 260.25 722.13 262.64 723.90 263.79 C 724.77 260.61 725.66 255.23 730.03 255.51 C 733.71 255.52 734.42 260.06 733.65 262.89 C 733.45 265.99 730.86 270.36 734.42 272.47 C 739.66 276.27 746.18 272.10 751.86 273.95 C 753.44 275.01 754.74 277.46 752.91 278.98 C 750.20 280.83 746.74 281.19 744.11 283.13 C 742.57 285.39 742.09 288.21 740.57 290.49 C 738.88 293.01 736.66 295.33 736.15 298.45 C 733.41 311.85 733.03 325.58 731.40 339.13 C 730.67 345.44 729.34 351.65 728.57 357.96 C 733.84 352.00 737.84 345.07 742.92 338.96 C 745.25 336.16 748.51 334.44 751.43 332.34 C 756.98 328.61 760.49 322.67 766.03 318.91 C 771.38 315.09 774.88 309.47 778.12 303.88 C 778.63 303.84 779.66 303.75 780.18 303.71 C 783.62 298.37 787.56 293.38 791.11 288.11 C 792.34 286.15 794.25 284.44 794.63 282.07 C 794.28 278.88 792.90 275.90 792.63 272.70 C 794.37 272.16 795.89 273.07 797.36 273.87 C 796.26 269.49 793.99 265.07 794.52 260.52 C 796.47 259.14 797.57 261.97 799.03 262.83 C 799.11 259.13 796.80 255.88 796.89 252.24 C 797.68 251.97 799.24 251.44 800.03 251.17 C 800.80 252.51 801.59 253.85 802.37 255.20 C 802.89 253.43 802.16 250.95 803.95 249.80 C 805.39 250.30 806.40 251.27 806.98 252.70 C 809.62 261.35 808.12 270.42 808.57 279.28 C 812.13 276.47 814.94 272.91 817.69 269.34 C 819.01 269.87 820.84 270.08 821.13 271.82 C 821.78 274.84 819.92 277.50 818.64 280.07 C 822.96 280.25 828.26 282.09 831.88 278.91 C 830.02 274.09 824.79 271.84 822.28 267.45 C 819.91 263.45 817.05 259.22 817.74 254.32 C 818.34 254.53 819.54 254.94 820.13 255.15 C 822.27 258.39 823.97 261.98 827.18 264.40 C 826.92 261.01 825.69 257.50 826.66 254.12 C 827.10 252.48 829.06 252.58 830.38 252.17 C 830.47 257.88 831.83 263.80 836.49 267.60 C 836.57 264.27 836.62 260.90 837.50 257.67 C 838.43 257.66 839.37 257.65 840.32 257.65 C 841.48 263.70 840.31 272.02 847.04 275.15 C 847.48 273.64 848.00 272.14 848.47 270.64 C 848.92 270.65 849.80 270.67 850.25 270.69 C 850.63 272.57 851.01 274.46 851.40 276.35 C 855.96 277.97 860.23 280.30 864.81 281.88 C 869.09 283.36 871.82 287.10 874.83 290.25 C 883.25 297.59 895.41 298.81 903.40 306.76 C 911.47 313.45 920.66 318.65 928.93 325.07 C 931.33 326.90 932.33 329.82 933.12 332.62 C 938.94 320.34 948.17 310.11 954.07 297.92 C 955.46 291.84 951.76 285.97 952.03 279.91 C 955.13 272.53 956.37 264.43 960.61 257.53 C 962.71 254.22 963.53 249.38 967.71 248.02 C 968.18 248.48 969.14 249.39 969.61 249.85 C 970.99 249.73 972.38 249.62 973.78 249.52 C 974.73 254.18 971.53 258.16 970.23 262.38 L 971.77 262.79 C 972.49 261.49 973.94 258.88 974.66 257.58 C 976.00 256.07 977.35 257.95 978.61 258.56 C 976.48 264.83 972.79 270.62 972.03 277.31 C 976.56 276.25 977.44 271.00 980.91 268.52 L 982.52 269.08 C 982.98 275.51 976.38 279.73 975.47 285.91 C 975.04 289.61 975.08 293.34 975.29 297.05 C 971.17 301.44 968.27 306.76 964.78 311.64 C 961.40 316.43 960.94 322.44 959.42 327.93 C 954.96 344.66 949.04 360.99 942.08 376.84 C 939.83 381.86 942.80 386.93 944.68 391.53 C 947.74 399.15 952.06 406.18 955.13 413.81 C 957.70 420.26 961.64 426.11 963.68 432.77 C 965.31 437.93 965.09 443.48 967.04 448.56 C 970.71 446.95 975.04 446.62 978.25 444.09 C 979.85 443.12 979.05 441.24 978.89 439.77 C 977.54 433.51 975.67 427.36 974.85 420.99 C 975.05 417.26 970.43 416.48 969.53 413.26 C 967.98 408.63 966.80 403.81 966.61 398.91 C 966.46 396.14 968.36 393.80 968.55 391.09 C 968.78 386.17 967.91 381.22 968.81 376.34 C 971.05 364.47 981.21 355.38 992.78 352.81 C 998.32 351.43 1004.21 349.93 1009.89 351.53 C 1019.51 353.79 1029.42 358.74 1034.30 367.76 C 1038.40 375.41 1035.57 384.30 1037.19 392.43 C 1039.01 397.99 1038.31 404.04 1036.70 409.56 C 1035.53 413.25 1031.68 415.24 1030.46 418.90 C 1028.17 425.19 1026.77 431.77 1024.50 438.07 C 1023.84 440.24 1022.37 442.97 1024.64 444.76 C 1030.09 450.53 1038.91 449.11 1046.08 449.49 C 1044.50 444.14 1043.21 438.64 1043.65 433.02 C 1043.43 424.02 1047.76 415.92 1050.20 407.49 C 1053.11 396.67 1058.16 386.48 1060.08 375.40 C 1060.86 369.60 1056.42 365.13 1053.97 360.34 C 1046.46 346.57 1039.44 332.46 1034.08 317.70 C 1033.17 313.70 1028.23 313.84 1025.67 311.41 C 1022.41 308.29 1019.20 305.10 1016.27 301.67 C 1012.27 296.22 1008.12 290.53 1002.15 287.09 C 999.12 285.27 995.67 282.87 995.32 279.04 C 995.39 275.99 999.43 274.67 1001.58 276.62 C 1004.90 278.43 1007.17 282.30 1011.04 282.85 C 1016.03 282.09 1014.02 276.12 1014.75 272.64 C 1012.96 271.73 1009.87 271.54 1010.54 268.77 C 1012.18 267.12 1014.69 266.94 1016.81 266.24 C 1016.85 259.51 1015.31 252.39 1018.02 245.99 C 1019.07 245.67 1020.16 245.51 1021.27 245.31 C 1021.68 247.79 1021.72 250.44 1022.98 252.70 C 1025.08 256.82 1028.97 259.95 1030.00 264.62 C 1031.23 270.00 1030.80 275.57 1030.97 281.05 C 1031.07 282.98 1030.97 285.10 1032.21 286.74 C 1035.49 291.72 1039.60 296.09 1043.52 300.57 C 1055.02 312.79 1065.09 326.44 1072.73 341.40 C 1077.92 351.57 1081.80 362.35 1085.04 373.28 C 1089.67 367.71 1096.41 364.52 1103.47 363.37 C 1104.22 357.80 1105.87 352.17 1109.69 347.90 C 1114.95 341.55 1123.33 339.07 1131.28 338.47 C 1123.61 326.44 1114.04 315.75 1105.99 304.00 C 1103.67 298.61 1107.21 293.12 1108.57 287.95 C 1110.08 281.76 1111.12 275.28 1114.66 269.83 C 1118.12 264.81 1119.38 258.77 1121.06 253.03 C 1121.86 253.10 1123.45 253.25 1124.24 253.33 C 1126.49 248.87 1129.30 244.73 1131.59 240.29 C 1133.51 236.47 1132.52 232.07 1132.66 227.98 C 1132.83 223.62 1131.78 219.34 1131.85 215.00 C 1131.93 212.50 1133.17 209.12 1136.29 209.60 C 1137.61 213.09 1137.06 216.86 1137.58 220.49 C 1138.47 220.91 1139.05 220.71 1139.32 219.88 C 1140.02 215.08 1138.87 209.91 1141.25 205.44 C 1142.26 205.54 1144.27 205.75 1145.27 205.85 C 1145.29 207.53 1145.34 209.21 1145.37 210.90 C 1145.73 209.05 1146.08 207.19 1146.67 205.39 C 1148.36 205.26 1150.27 206.07 1150.41 208.00 C 1151.06 212.44 1150.86 216.97 1151.49 221.43 C 1156.10 218.78 1154.83 212.56 1155.90 208.17 C 1157.38 208.35 1160.58 207.40 1160.38 209.99 C 1160.63 211.44 1160.81 212.91 1160.98 214.38 C 1162.20 214.02 1163.44 213.67 1164.70 213.33 C 1165.14 217.54 1164.08 221.76 1162.87 225.76 C 1159.02 231.44 1152.31 235.07 1150.11 241.88 C 1148.08 248.12 1145.16 254.03 1143.43 260.37 C 1141.34 266.32 1137.97 273.32 1142.15 279.20 C 1140.68 282.76 1138.26 285.78 1136.31 289.05 C 1137.94 293.09 1139.51 297.26 1139.29 301.76 C 1142.42 303.75 1145.87 305.15 1149.21 306.75 C 1153.42 308.73 1156.25 312.84 1157.70 317.16 C 1158.43 320.70 1163.22 320.26 1164.77 323.17 C 1165.92 324.91 1166.72 326.93 1168.18 328.46 C 1171.42 329.37 1174.91 329.04 1178.17 330.03 C 1183.40 331.57 1188.58 333.30 1193.75 335.07 C 1192.28 332.53 1190.54 330.18 1189.14 327.61 C 1186.88 323.63 1187.88 318.33 1184.23 315.09 C 1184.08 310.63 1184.06 306.12 1182.92 301.78 C 1182.22 299.31 1182.07 296.61 1183.35 294.31 C 1185.22 289.82 1189.79 287.56 1193.88 285.50 C 1204.63 280.41 1218.03 279.08 1228.61 285.26 C 1234.36 289.31 1238.77 295.87 1239.11 303.04 C 1239.20 307.11 1242.12 311.00 1240.44 315.06 C 1239.67 317.71 1237.22 319.18 1235.14 320.69 C 1235.26 323.32 1235.49 325.95 1235.75 328.57 C 1239.45 328.41 1243.20 329.05 1246.89 328.50 C 1251.20 326.51 1255.79 324.73 1258.99 321.05 C 1263.69 319.66 1269.11 319.00 1272.86 315.61 C 1274.96 311.03 1274.61 305.37 1278.21 301.47 C 1281.45 295.89 1285.55 290.92 1290.53 286.81 C 1289.83 282.11 1291.92 277.85 1292.98 273.42 C 1293.99 269.21 1290.46 265.91 1289.72 261.99 C 1288.42 256.91 1291.72 252.03 1290.77 246.91 C 1289.16 237.37 1283.22 229.34 1280.53 220.14 C 1278.69 213.49 1272.50 208.90 1271.50 201.94 C 1270.36 196.70 1271.72 191.40 1272.32 186.19 C 1274.15 186.79 1275.48 188.21 1276.70 189.65 C 1276.92 185.82 1276.56 181.95 1277.31 178.17 C 1277.31 175.76 1279.89 175.97 1281.58 175.38 C 1283.19 180.99 1282.46 187.05 1284.63 192.51 C 1286.38 186.51 1286.84 180.22 1288.28 174.14 C 1289.17 173.71 1290.08 173.28 1291.01 172.86 C 1291.57 173.09 1292.69 173.55 1293.26 173.78 C 1293.22 174.48 1293.15 175.89 1293.11 176.59 C 1294.63 176.21 1296.18 176.04 1297.76 176.07 C 1297.95 177.99 1297.91 179.93 1297.96 181.87 C 1299.09 181.81 1300.23 181.76 1301.38 181.71 C 1301.98 183.75 1302.86 185.87 1302.21 188.01 C 1300.68 194.86 1301.26 201.98 1299.56 208.80 C 1297.09 218.15 1302.56 227.06 1307.21 234.77 C 1308.00 234.77 1309.59 234.77 1310.38 234.77 C 1311.00 237.73 1312.07 240.59 1313.77 243.11 C 1316.62 247.23 1316.67 252.47 1318.89 256.87 C 1320.50 260.57 1322.96 263.89 1324.05 267.82 C 1326.47 276.87 1325.47 286.68 1321.60 295.18 C 1317.39 304.71 1312.07 313.72 1308.62 323.57 C 1302.89 333.53 1295.55 342.54 1290.18 352.74 C 1286.30 359.59 1284.74 367.43 1284.03 375.20 C 1287.11 375.53 1290.38 375.62 1293.20 377.12 C 1297.86 379.60 1301.36 384.60 1301.19 390.01 C 1300.97 395.24 1303.32 400.82 1300.52 405.71 C 1297.43 410.03 1297.60 415.55 1296.02 420.45 C 1304.18 429.10 1315.90 432.78 1326.06 438.46 C 1327.46 436.72 1330.15 435.16 1329.30 432.54 C 1328.09 426.37 1326.09 420.37 1325.47 414.09 C 1320.33 410.49 1319.85 403.87 1318.99 398.21 C 1318.91 394.45 1320.68 390.84 1320.11 387.04 C 1319.25 379.67 1321.00 371.84 1325.86 366.09 C 1332.53 358.01 1344.07 355.14 1354.08 357.37 C 1361.23 358.82 1369.18 361.39 1372.97 368.19 C 1377.54 375.42 1375.09 384.29 1376.86 392.22 C 1377.66 397.92 1377.99 404.59 1373.93 409.21 C 1371.04 412.72 1370.54 417.39 1369.40 421.63 C 1368.50 425.48 1367.11 429.23 1366.56 433.17 C 1369.19 437.91 1374.59 440.32 1379.00 443.20 C 1379.40 439.26 1379.97 435.32 1380.89 431.46 C 1381.65 428.28 1383.84 425.63 1384.48 422.40 C 1385.01 419.77 1385.26 417.06 1386.39 414.60 C 1387.99 411.23 1386.07 407.41 1387.33 403.93 C 1389.86 395.77 1389.84 387.09 1392.36 378.92 C 1395.95 367.21 1397.17 354.96 1398.29 342.82 C 1399.17 338.00 1394.17 335.56 1391.31 332.67 C 1384.88 327.55 1379.46 319.56 1370.45 319.38 C 1370.48 318.42 1370.53 317.46 1370.60 316.50 C 1372.66 315.50 1374.68 314.17 1377.05 314.04 C 1382.64 313.52 1386.47 319.88 1392.13 318.66 C 1394.24 317.08 1395.22 314.38 1394.87 311.80 C 1394.14 302.89 1391.83 294.12 1392.01 285.14 C 1392.21 282.85 1394.82 280.04 1396.99 282.10 C 1398.83 285.40 1397.92 289.49 1398.98 293.07 C 1400.10 296.94 1400.31 301.53 1403.48 304.43 C 1403.87 295.59 1403.94 286.58 1405.86 277.93 C 1406.31 275.07 1409.26 275.78 1411.33 275.60 C 1411.48 284.99 1408.68 294.60 1410.94 303.86 C 1414.24 296.99 1415.28 289.34 1416.96 281.98 C 1417.33 280.36 1418.45 279.07 1419.35 277.70 C 1419.98 277.67 1421.26 277.62 1421.90 277.59 C 1423.95 280.55 1422.54 284.13 1421.94 287.32 C 1420.59 293.69 1419.20 300.05 1417.68 306.37 C 1424.92 302.08 1423.76 291.36 1430.06 285.99 C 1430.51 287.30 1432.02 288.44 1431.71 289.97 C 1431.00 294.87 1428.18 299.09 1426.74 303.77 C 1423.81 311.90 1424.41 320.84 1421.30 328.93 C 1419.52 333.40 1418.18 338.10 1418.32 342.96 C 1418.42 352.97 1418.19 362.98 1418.20 372.98 C 1418.46 386.54 1415.25 399.80 1413.67 413.19 C 1414.90 415.77 1416.46 418.23 1417.24 421.01 C 1417.51 423.54 1415.58 425.56 1414.49 427.69 C 1416.80 430.26 1417.39 433.66 1417.38 437.03 C 1416.77 437.78 1416.18 438.54 1415.61 439.30 C 1417.01 443.12 1417.59 447.25 1415.46 450.93 C 1416.51 453.74 1416.13 456.64 1415.14 459.42 C 1417.65 461.13 1420.33 462.58 1423.08 463.89 C 1422.47 458.88 1419.95 453.75 1421.61 448.71 C 1423.38 443.57 1421.45 438.11 1422.50 432.87 C 1423.92 422.90 1432.22 414.73 1441.92 412.55 C 1450.04 410.23 1458.33 412.72 1466.14 415.03 C 1466.03 410.52 1466.99 405.70 1464.96 401.48 C 1461.96 395.68 1457.65 390.66 1454.89 384.73 C 1451.60 377.91 1451.29 370.22 1449.68 362.94 C 1449.16 359.99 1448.19 356.35 1450.58 353.93 C 1452.47 352.49 1454.76 351.73 1456.93 350.77 C 1454.34 335.47 1450.95 320.32 1448.22 305.05 C 1447.26 301.50 1450.36 297.95 1453.94 298.00 C 1456.81 297.99 1458.97 300.53 1459.54 303.18 C 1462.32 313.75 1464.62 324.47 1467.56 335.00 C 1467.70 336.74 1469.76 336.99 1471.15 336.89 C 1473.37 335.90 1474.95 333.96 1477.06 332.78 C 1480.41 332.37 1482.67 336.03 1485.98 335.94 C 1488.20 335.66 1490.01 334.18 1492.10 333.47 C 1496.63 333.19 1497.34 339.96 1501.96 339.35 C 1504.09 339.45 1506.76 339.52 1507.34 342.12 C 1509.93 349.78 1511.07 358.01 1510.15 366.08 C 1509.18 374.35 1507.92 382.77 1504.31 390.35 C 1502.79 393.62 1500.57 396.74 1500.68 400.51 C 1505.64 395.02 1510.65 389.32 1513.56 382.42 C 1518.46 371.48 1522.81 360.24 1528.87 349.87 C 1530.27 348.70 1532.27 348.98 1533.97 348.53 C 1533.98 343.13 1533.66 337.17 1529.86 332.93 C 1525.74 328.52 1520.47 325.22 1516.95 320.25 C 1513.94 316.23 1514.58 310.81 1512.19 306.52 C 1511.09 304.66 1509.21 303.20 1508.90 300.96 C 1510.14 300.51 1511.52 300.04 1512.78 300.84 C 1517.97 303.40 1522.17 307.61 1525.74 312.12 C 1528.19 311.16 1530.58 309.83 1533.28 309.67 C 1534.31 312.12 1532.62 314.43 1531.93 316.72 C 1534.74 318.49 1538.06 320.89 1541.54 319.40 C 1544.56 318.26 1543.27 314.48 1543.71 312.01 C 1543.54 309.14 1544.15 304.63 1548.04 305.00 C 1552.13 306.15 1552.21 311.47 1551.34 314.90 C 1548.73 324.48 1553.85 333.80 1553.41 343.41 C 1557.91 340.73 1562.66 338.07 1568.01 337.66 C 1574.79 336.88 1581.60 338.73 1587.80 341.39 C 1594.88 344.55 1599.06 352.40 1598.55 360.03 C 1597.81 368.13 1601.05 376.34 1598.21 384.27 C 1596.80 387.15 1594.15 389.31 1593.27 392.47 C 1591.48 398.39 1590.09 404.43 1588.00 410.26 C 1594.33 417.37 1602.79 422.28 1611.33 426.29 C 1611.24 416.82 1611.25 407.32 1612.46 397.91 C 1612.77 395.56 1613.02 393.18 1612.75 390.83 C 1611.67 382.24 1610.94 373.61 1610.17 364.99 C 1609.79 361.27 1610.23 357.24 1608.36 353.87 C 1599.18 337.68 1588.46 322.16 1582.07 304.56 C 1579.01 297.49 1574.46 291.20 1571.05 284.32 C 1569.86 282.06 1572.86 280.73 1573.94 279.13 C 1571.25 275.40 1568.01 271.98 1566.12 267.74 C 1564.36 263.07 1567.63 258.65 1567.91 254.05 C 1567.56 246.88 1561.36 241.46 1561.41 234.21 C 1562.85 234.57 1564.60 234.88 1565.38 236.38 C 1568.17 240.52 1570.27 245.08 1573.03 249.24 C 1572.93 240.79 1568.21 233.19 1567.64 224.89 C 1568.05 224.40 1568.87 223.41 1569.29 222.92 C 1572.64 225.10 1572.94 229.65 1575.00 232.85 C 1574.85 229.82 1574.31 226.82 1573.34 223.94 C 1572.71 221.59 1571.43 219.10 1572.72 216.73 C 1573.96 216.69 1575.27 216.78 1576.56 216.85 C 1578.00 216.41 1579.44 215.97 1580.92 215.54 C 1582.76 219.67 1584.52 223.84 1586.30 228.01 C 1588.68 233.22 1588.63 239.11 1590.56 244.48 C 1592.48 249.67 1588.74 254.53 1587.72 259.50 C 1586.52 262.62 1587.53 265.86 1588.86 268.75 C 1590.71 268.50 1593.00 266.96 1594.70 268.05 C 1602.52 278.04 1608.15 289.50 1614.96 300.16 C 1620.49 280.73 1629.53 262.38 1641.11 245.85 C 1644.89 240.07 1648.88 234.34 1651.71 228.03 C 1652.80 220.28 1648.97 212.71 1650.04 204.95 C 1650.60 200.04 1654.24 196.30 1655.55 191.63 C 1656.20 189.27 1655.86 186.80 1655.81 184.39 C 1657.60 184.16 1659.85 183.65 1660.48 186.01 C 1663.55 191.77 1663.21 198.47 1664.22 204.73 C 1666.54 205.75 1670.21 204.73 1671.57 207.32 C 1672.05 209.80 1668.93 210.23 1667.51 211.40 C 1668.35 214.24 1668.86 217.17 1669.77 220.00 C 1671.03 220.82 1672.51 221.28 1674.04 221.45 C 1677.66 219.03 1679.67 214.87 1683.32 212.49 C 1685.46 210.89 1688.99 212.13 1689.29 214.90 C 1689.69 218.99 1686.19 221.91 1683.37 224.27 C 1677.06 228.94 1673.99 236.39 1670.10 242.93 C 1667.33 246.56 1664.95 250.52 1661.88 253.90 C 1659.68 256.26 1655.28 256.82 1654.87 260.51 C 1651.59 276.71 1646.58 292.51 1640.93 308.02 C 1639.32 312.64 1636.54 316.98 1636.25 321.96 C 1636.61 326.32 1638.94 330.18 1641.05 333.91 C 1644.55 339.63 1647.58 345.67 1651.70 351.00 C 1654.16 354.08 1655.81 357.70 1656.81 361.51 C 1661.90 359.24 1666.90 356.67 1671.36 353.30 C 1673.92 351.50 1674.77 348.02 1674.16 345.07 C 1673.20 339.93 1672.04 334.83 1671.17 329.68 C 1669.04 330.06 1665.62 331.23 1664.79 328.35 C 1663.59 323.31 1664.07 318.01 1663.07 312.91 C 1662.36 310.33 1665.17 309.50 1667.06 308.92 C 1667.00 306.01 1667.16 303.09 1666.74 300.21 C 1666.03 296.73 1664.02 293.59 1663.88 289.99 C 1663.55 283.35 1661.02 276.61 1663.47 270.09 C 1664.95 266.38 1660.77 264.17 1659.72 261.04 C 1659.43 257.81 1662.84 256.75 1665.08 255.50 C 1664.75 256.46 1664.09 258.39 1663.76 259.35 C 1667.81 262.52 1671.89 258.02 1676.06 257.56 C 1679.09 257.72 1682.02 259.43 1685.10 258.54 C 1687.36 258.14 1689.57 257.24 1691.93 257.32 C 1695.05 257.73 1697.78 259.49 1700.82 260.26 C 1703.55 260.96 1706.31 261.71 1708.98 262.71 C 1712.21 261.76 1716.12 260.57 1718.92 263.23 C 1722.16 265.45 1721.37 269.64 1722.16 272.96 C 1724.50 275.91 1729.06 277.62 1729.24 281.91 C 1729.83 285.20 1727.89 288.02 1726.89 290.99 C 1726.84 295.79 1727.52 300.61 1726.68 305.40 C 1727.93 305.45 1729.20 305.50 1730.50 305.54 C 1732.24 310.95 1730.58 316.56 1730.27 322.04 C 1729.98 323.79 1730.24 326.24 1728.25 327.04 C 1726.59 327.32 1724.88 327.20 1723.26 327.26 C 1722.49 334.92 1722.19 342.62 1721.14 350.25 C 1724.99 353.09 1728.95 355.82 1733.18 358.10 C 1735.62 352.08 1738.50 346.20 1740.16 339.89 C 1738.39 337.84 1736.65 335.76 1734.99 333.64 C 1737.68 332.71 1740.50 332.33 1743.36 332.11 C 1746.07 326.74 1747.81 320.96 1749.83 315.31 C 1751.13 311.72 1751.56 307.56 1749.77 304.06 C 1741.43 289.12 1734.21 273.55 1728.09 257.57 C 1725.28 250.54 1724.17 242.55 1718.99 236.70 C 1715.62 232.72 1712.57 228.47 1708.92 224.75 C 1708.28 223.98 1707.29 223.28 1707.38 222.16 C 1706.86 218.09 1706.63 213.94 1705.46 209.98 C 1703.49 205.38 1699.62 201.93 1697.36 197.49 C 1696.19 196.07 1697.39 194.50 1697.80 193.06 C 1700.95 194.99 1703.01 198.12 1705.49 200.78 C 1706.26 201.91 1707.57 201.90 1708.83 201.64 C 1707.65 194.75 1702.18 189.52 1700.74 182.71 C 1701.27 182.28 1702.33 181.40 1702.85 180.97 C 1706.53 183.26 1707.91 187.79 1710.78 190.90 C 1709.78 187.18 1708.25 183.65 1706.39 180.29 C 1705.43 178.30 1703.83 176.14 1704.88 173.85 C 1706.16 173.07 1707.69 173.48 1709.13 173.39 C 1710.29 172.92 1711.60 170.79 1712.94 172.06 C 1716.42 174.65 1717.84 179.08 1720.49 182.43 C 1724.62 187.82 1725.96 194.62 1729.18 200.50 C 1733.90 207.94 1726.10 217.18 1731.12 224.59 C 1734.16 228.65 1736.76 233.05 1740.20 236.81 C 1748.96 247.03 1756.55 258.25 1762.95 270.09 C 1766.22 275.69 1767.90 282.08 1771.46 287.52 C 1771.79 284.31 1771.54 281.05 1772.08 277.87 C 1775.69 262.51 1787.43 250.51 1790.77 235.07 C 1792.48 229.23 1796.03 224.09 1797.56 218.19 C 1798.60 210.28 1795.67 202.65 1794.49 194.93 C 1793.44 188.65 1791.96 182.27 1792.79 175.88 C 1793.06 173.69 1795.77 173.86 1797.36 173.25 C 1800.19 178.87 1798.72 186.06 1802.92 191.06 C 1806.17 190.45 1808.98 188.45 1812.23 187.82 C 1814.62 188.52 1816.88 189.67 1819.38 190.06 C 1820.81 187.08 1821.91 183.81 1824.21 181.35 C 1825.57 180.92 1827.02 181.46 1828.45 181.55 C 1828.52 186.28 1826.40 190.58 1824.02 194.54 C 1825.20 194.99 1826.40 195.45 1827.62 195.91 C 1828.04 198.95 1825.57 200.54 1823.29 201.84 C 1823.21 205.75 1822.69 209.63 1821.94 213.46 C 1826.99 212.36 1832.34 212.34 1837.21 214.26 C 1843.20 216.04 1849.11 219.93 1850.98 226.21 C 1853.94 233.38 1849.48 241.11 1852.53 248.27 C 1856.18 242.12 1859.46 235.71 1862.20 229.10 C 1864.32 223.84 1861.02 218.76 1859.34 213.91 C 1854.98 201.65 1851.19 189.16 1848.32 176.47 C 1847.01 170.79 1846.83 164.63 1843.58 159.59 C 1840.60 155.06 1838.29 150.07 1834.64 146.01 C 1834.70 140.75 1835.82 134.98 1833.01 130.20 C 1831.02 126.69 1828.92 123.16 1828.28 119.12 C 1832.84 118.66 1833.93 124.11 1836.29 126.94 C 1836.90 126.83 1838.13 126.60 1838.74 126.49 C 1837.51 122.08 1835.97 117.78 1834.33 113.51 C 1833.73 111.47 1832.54 107.53 1836.06 108.03 C 1838.21 110.79 1839.38 114.13 1841.22 117.10 C 1840.63 111.81 1837.85 107.08 1837.44 101.77 C 1839.43 101.66 1841.44 101.54 1843.47 101.41 C 1849.44 106.30 1852.54 113.69 1854.16 121.06 C 1854.85 124.53 1856.42 127.77 1857.07 131.25 C 1856.67 136.56 1853.75 141.54 1854.25 146.96 C 1856.26 152.08 1858.95 156.96 1861.95 161.59 C 1877.63 185.56 1886.19 214.00 1886.57 242.63 C 1889.40 238.43 1890.71 233.46 1893.08 229.02 C 1897.61 219.44 1903.58 210.46 1906.80 200.32 C 1907.26 193.35 1903.56 186.87 1903.35 179.93 C 1902.65 175.32 1904.87 171.14 1906.46 167.00 C 1908.00 163.25 1907.69 159.12 1907.86 155.16 C 1909.26 155.95 1910.98 156.62 1911.72 158.22 C 1914.64 163.76 1915.88 170.04 1916.36 176.24 C 1919.21 176.86 1923.13 175.86 1924.63 179.10 C 1923.29 180.37 1921.88 181.48 1920.43 182.58 C 1921.52 185.24 1922.10 188.10 1923.29 190.73 C 1924.58 191.82 1926.46 191.63 1928.07 192.07 C 1930.18 189.19 1932.17 186.20 1934.59 183.54 C 1935.53 182.70 1936.47 181.31 1937.98 181.64 C 1940.72 181.17 1942.51 184.59 1941.53 186.92 C 1940.67 191.05 1936.96 193.46 1934.46 196.54 C 1930.37 201.62 1928.35 207.93 1925.67 213.78 C 1923.62 217.32 1921.67 220.93 1919.54 224.41 C 1917.80 227.23 1914.06 228.39 1912.79 231.48 C 1910.97 248.53 1907.50 265.40 1903.15 281.99 C 1901.96 287.05 1899.07 292.21 1900.67 297.51 C 1905.05 307.77 1912.19 316.47 1917.75 326.07 C 1921.12 332.37 1925.68 337.94 1929.06 344.25 C 1933.48 343.55 1937.69 341.09 1939.77 337.00 C 1939.99 329.89 1936.96 323.16 1936.50 316.10 C 1936.79 311.86 1931.92 310.12 1931.39 306.13 C 1930.22 300.98 1928.54 295.52 1929.82 290.25 C 1932.08 283.75 1929.67 276.75 1931.43 270.15 C 1933.53 259.86 1941.64 250.96 1951.91 248.41 C 1959.37 246.10 1967.32 247.56 1974.54 250.04 C 1981.13 252.06 1987.17 256.66 1989.74 263.22 C 1993.27 270.67 1990.72 279.08 1992.24 286.89 C 1993.80 291.96 1992.73 297.31 1992.08 302.44 C 1991.46 306.96 1986.92 309.47 1986.03 313.88 C 1984.35 319.86 1983.07 325.95 1981.21 331.89 C 1980.70 333.84 1979.55 336.25 1981.49 337.84 C 1984.50 342.07 1990.06 342.28 1994.76 342.58 C 1994.70 339.06 1994.45 335.55 1994.59 332.04 C 1994.79 324.40 1998.13 317.38 1999.88 310.05 C 2002.39 298.25 2007.25 287.02 2008.85 275.02 C 2009.32 269.94 2005.62 266.00 2003.19 261.95 C 1995.90 250.22 1989.31 238.06 1983.35 225.61 C 1979.69 218.82 1978.21 210.81 1973.06 204.90 C 1968.48 200.18 1964.30 195.09 1959.44 190.68 C 1958.49 186.31 1958.31 181.71 1956.44 177.58 C 1954.12 173.41 1950.27 170.36 1947.88 166.26 C 1947.18 165.18 1947.12 163.87 1948.20 163.02 C 1951.56 164.51 1953.84 167.55 1956.85 169.58 C 1957.41 169.48 1958.53 169.27 1959.09 169.17 C 1957.58 163.35 1953.54 158.72 1950.64 153.59 C 1949.25 151.97 1951.02 150.44 1951.72 148.99 C 1955.32 152.21 1957.51 156.60 1960.80 160.11 C 1959.49 153.42 1954.14 148.56 1952.51 142.05 C 1955.64 141.98 1958.71 141.14 1961.84 140.92 C 1966.50 146.27 1969.92 152.59 1973.29 158.81 C 1974.80 163.39 1978.66 166.70 1980.09 171.32 C 1981.31 177.23 1978.67 183.78 1981.64 189.36 C 1985.17 193.51 1988.21 198.09 1992.14 201.91 C 2009.45 219.48 2023.17 240.65 2031.63 263.85 C 2038.96 282.76 2041.57 303.01 2043.64 323.06 C 2044.95 333.30 2045.56 343.60 2045.83 353.92 C 2046.65 366.80 2045.55 379.81 2048.00 392.55 L 2048.00 776.00 L 0.00 776.00 L 0.00 367.04 C 5.52 363.03 11.34 359.22 15.81 354.01 C 18.18 351.80 16.43 348.63 15.68 346.09 C 14.28 342.65 13.84 338.64 11.15 335.88 C 8.44 332.97 7.87 328.89 6.95 325.18 C 8.42 320.83 6.41 316.39 6.77 311.98 C 7.18 304.95 12.42 298.78 18.96 296.50 C 24.34 294.35 30.21 295.39 35.73 296.28 C 36.55 286.40 34.06 276.71 33.36 266.90 C 32.85 264.58 33.54 261.49 31.22 260.00 C 26.89 256.67 24.51 251.66 21.79 247.06 C 19.13 242.92 22.81 238.45 23.09 234.13 C 30.36 229.28 38.87 223.91 47.97 226.30 C 52.00 227.99 51.65 232.69 50.37 236.07 C 50.92 239.04 51.70 241.98 51.84 245.01 C 51.54 248.09 49.47 251.02 50.34 254.18 C 51.08 257.20 52.26 260.09 53.25 263.04 C 59.19 282.05 69.60 299.84 71.33 320.01 C 71.85 328.34 69.72 337.14 73.65 344.95 C 76.92 343.00 80.22 340.89 82.57 337.84 C 83.38 334.43 81.70 330.98 81.08 327.64 C 80.52 324.30 77.73 321.99 76.83 318.79 C 76.16 316.56 75.85 314.22 76.24 311.92 C 77.04 306.75 75.35 301.03 78.35 296.35 C 80.33 292.56 84.30 290.70 87.86 288.72 C 87.35 286.08 85.57 283.96 84.26 281.68 C 80.55 275.50 76.89 269.25 74.01 262.63 C 71.02 255.07 68.02 247.51 64.71 240.08 C 61.30 232.19 59.36 223.23 53.00 217.02 C 46.11 209.89 43.12 199.98 36.31 192.79 C 33.16 189.18 29.20 186.15 27.00 181.81 C 25.40 179.19 29.52 178.17 30.93 179.92 C 36.31 184.49 40.11 191.38 47.03 193.85 C 45.64 190.14 42.82 187.26 40.75 183.95 C 37.61 178.94 33.93 174.25 31.44 168.86 C 32.68 168.02 33.92 167.18 35.16 166.34 C 39.43 169.29 41.23 174.33 44.44 178.21 C 46.86 181.18 48.53 184.83 51.45 187.36 C 52.70 188.20 53.01 186.08 52.55 185.33 C 49.28 177.19 45.26 169.37 41.34 161.53 C 42.52 160.84 43.72 160.17 45.00 159.65 C 50.37 162.41 51.30 169.11 54.49 173.75 C 57.14 177.37 56.86 182.77 60.72 185.45 C 60.93 179.09 60.13 172.69 58.29 166.60 C 57.76 164.60 56.93 162.10 58.75 160.48 C 63.15 159.85 64.27 164.81 65.30 168.00 C 68.23 175.62 68.50 183.96 71.59 191.52 C 72.86 194.38 77.06 196.22 79.51 193.68 C 83.00 190.40 85.38 184.65 90.91 184.62 C 93.12 184.46 97.27 184.40 96.82 187.70 C 94.51 189.44 91.52 190.49 90.12 193.19 C 86.26 199.54 83.25 206.35 79.88 212.97 C 79.12 214.80 77.73 216.77 78.58 218.82 C 80.60 224.31 83.89 229.20 86.56 234.37 C 89.93 240.94 94.02 247.11 98.60 252.88 C 104.17 260.01 107.59 268.53 113.25 275.60 C 115.49 278.25 114.85 282.37 117.63 284.65 C 119.40 286.28 120.63 288.34 121.80 290.42 C 123.59 293.77 127.12 295.67 129.21 298.79 C 130.54 300.73 131.96 302.61 133.43 304.45 C 134.39 298.39 135.04 292.06 133.28 286.09 C 131.23 277.81 125.77 270.86 123.97 262.49 C 121.21 253.26 122.23 243.55 121.00 234.10 C 120.27 221.75 117.32 209.65 113.63 197.87 C 111.69 191.78 111.59 185.14 108.53 179.41 C 106.40 174.56 102.30 171.03 99.54 166.58 C 95.27 159.78 92.99 151.95 88.71 145.15 C 87.14 142.71 86.09 140.00 84.93 137.36 C 80.20 129.63 74.52 122.49 70.26 114.48 C 68.48 111.46 70.23 106.83 73.96 106.65 C 78.22 106.24 79.85 111.05 82.19 113.72 C 87.23 119.76 90.32 127.52 96.96 132.12 C 97.94 131.65 98.93 131.18 99.92 130.71 C 99.14 118.41 95.20 106.40 95.75 94.01 M 1798.19 287.75 C 1802.79 285.64 1807.29 282.89 1810.57 278.96 C 1810.86 273.99 1809.44 269.04 1808.81 264.12 C 1804.92 271.83 1801.24 279.67 1798.19 287.75 M 806.63 298.89 C 804.60 302.65 800.01 304.14 798.26 308.06 C 798.71 309.07 799.17 310.09 799.64 311.12 C 798.63 313.17 797.28 315.04 796.35 317.14 C 794.75 321.13 790.93 323.50 788.45 326.88 C 779.23 338.43 768.06 349.23 763.43 363.62 C 760.69 367.07 758.52 371.04 757.95 375.47 C 759.76 376.24 761.58 377.02 763.45 377.67 C 763.97 378.47 764.18 379.86 765.43 379.78 C 770.06 379.99 773.84 382.88 777.05 385.96 C 785.51 388.65 793.56 393.55 802.75 393.45 C 801.09 392.53 798.82 392.10 798.03 390.18 C 796.77 385.19 797.62 379.98 798.81 375.06 C 800.29 368.35 797.13 361.75 797.88 355.03 C 798.31 349.36 799.17 343.74 800.27 338.17 C 800.93 331.07 807.49 327.47 812.10 323.06 C 814.19 320.73 816.12 318.16 818.89 316.57 C 827.18 311.59 837.57 308.58 846.97 312.19 C 858.89 316.64 866.30 327.83 871.89 338.66 C 875.77 344.64 879.43 350.95 880.45 358.14 C 883.78 357.15 885.79 354.12 888.31 351.95 C 891.67 348.50 895.83 346.01 900.03 343.73 C 897.85 341.66 895.56 339.62 894.11 336.94 C 889.58 329.02 882.59 323.00 875.83 317.06 C 872.61 315.39 869.37 313.68 866.90 310.95 C 863.81 309.70 861.29 307.52 858.52 305.79 C 853.90 304.88 848.39 303.55 846.43 298.69 C 845.04 296.36 846.35 293.90 847.60 291.90 C 840.16 291.26 833.62 286.57 826.05 287.05 C 821.93 287.23 817.66 286.79 814.04 284.66 C 810.02 288.50 809.74 294.46 806.63 298.89 M 43.22 346.42 C 41.72 347.43 43.52 349.86 44.92 348.72 C 46.36 347.68 44.64 345.25 43.22 346.42 M 893.26 355.24 C 891.38 357.27 890.62 360.03 889.71 362.58 C 893.09 361.29 896.48 360.00 899.86 358.69 C 902.13 356.82 900.98 353.39 900.47 350.95 C 898.00 352.27 895.39 353.40 893.26 355.24 M 892.63 371.87 C 894.59 373.44 896.59 374.96 898.75 376.26 C 899.20 372.97 899.32 369.65 899.45 366.34 C 897.02 367.99 894.75 369.85 892.63 371.87 M 1159.78 369.56 C 1161.03 375.67 1161.54 382.08 1159.80 388.15 C 1158.36 390.85 1155.76 392.90 1155.05 395.99 C 1153.42 401.60 1152.29 407.34 1150.54 412.91 C 1149.39 415.19 1150.90 417.48 1152.80 418.71 C 1159.89 423.96 1167.30 428.95 1175.63 432.02 C 1176.53 421.77 1172.82 411.94 1171.56 401.89 C 1171.22 397.94 1172.30 393.93 1171.31 390.04 C 1169.34 382.39 1166.18 374.58 1159.78 369.56 M 802.98 390.34 C 803.92 390.41 805.81 390.56 806.75 390.63 C 804.30 387.20 804.65 382.85 803.39 378.99 C 801.56 382.56 802.11 386.60 802.98 390.34 M 716.48 398.93 C 716.41 401.80 715.56 404.57 714.62 407.26 C 716.47 410.21 718.26 413.42 717.99 417.03 C 717.80 422.85 721.06 429.26 717.49 434.57 C 715.35 437.76 714.83 441.64 714.48 445.38 C 721.77 441.65 728.99 437.62 735.24 432.27 C 736.25 431.29 737.47 430.36 737.99 429.00 C 737.36 424.66 735.79 420.53 734.82 416.27 C 732.91 414.65 731.78 412.42 731.37 409.98 C 730.04 406.12 731.80 402.15 731.03 398.24 C 726.09 394.89 726.37 387.75 721.06 384.79 C 719.33 389.42 716.56 393.85 716.48 398.93 M 1530.14 426.51 C 1535.00 424.59 1539.27 421.50 1543.73 418.82 C 1547.50 416.54 1550.96 413.74 1553.76 410.32 C 1552.45 404.05 1551.13 397.79 1550.23 391.46 C 1548.97 389.33 1546.88 387.70 1545.68 385.50 C 1542.23 399.79 1535.43 412.89 1530.14 426.51 M 762.74 418.30 C 762.16 421.59 760.71 424.86 761.14 428.23 C 770.59 436.67 783.43 439.49 794.84 444.37 C 793.14 438.64 787.63 435.44 784.30 430.77 C 776.59 427.51 770.48 421.52 762.74 418.30 M 598.87 427.25 C 598.25 431.01 598.37 435.00 596.66 438.49 C 595.10 441.11 592.46 443.04 591.66 446.10 C 589.55 452.97 588.02 460.01 585.74 466.83 C 584.41 469.27 586.87 471.14 588.44 472.62 C 593.59 476.82 599.15 480.50 604.82 483.98 C 604.66 478.98 603.71 474.03 603.85 469.03 C 604.78 454.97 603.01 440.71 598.87 427.25 M 804.74 455.40 C 806.54 465.28 806.74 475.32 807.33 485.31 C 809.71 481.64 809.41 476.99 811.22 473.07 C 811.76 471.34 813.13 469.80 812.98 467.92 C 811.08 463.28 808.64 458.68 804.74 455.40 Z" />
</g>
</svg>
